<svg width="20" height="20" viewBox="0 0 20 20" fill="none" xmlns="http://www.w3.org/2000/svg">
<path fill-rule="evenodd" clip-rule="evenodd" d="M1.52197 9.9209C1.52197 5.36455 5.21562 1.6709 9.77197 1.6709C14.3283 1.6709 18.022 5.36455 18.022 9.9209C18.022 14.4772 14.3283 18.1709 9.77197 18.1709C5.21562 18.1709 1.52197 14.4772 1.52197 9.9209ZM9.77197 0.170898C4.3872 0.170898 0.0219727 4.53612 0.0219727 9.9209C0.0219727 15.3057 4.3872 19.6709 9.77197 19.6709C15.1567 19.6709 19.522 15.3057 19.522 9.9209C19.522 4.53612 15.1567 0.170898 9.77197 0.170898ZM4.85722 6.12208C4.44301 6.11969 4.10529 6.45353 4.1029 6.86774C4.10051 7.28195 4.43435 7.61967 4.84856 7.62206L14.7236 7.67906C15.1378 7.68145 15.4755 7.34761 15.4779 6.9334C15.4803 6.51919 15.1464 6.18147 14.7322 6.17908L4.85722 6.12208ZM4.08491 9.89666C4.08735 9.48246 4.4251 9.14865 4.8393 9.15108L14.7143 9.20908C15.1285 9.21151 15.4623 9.54927 15.4599 9.96347C15.4575 10.3777 15.1197 10.7115 14.7055 10.7091L4.83049 10.6511C4.41629 10.6486 4.08248 10.3109 4.08491 9.89666ZM4.82132 12.1811C4.40711 12.1786 4.06935 12.5124 4.06691 12.9266C4.06447 13.3409 4.39827 13.6786 4.81247 13.6811L11.5975 13.7211C12.0117 13.7235 12.3494 13.3897 12.3519 12.9755C12.3543 12.5613 12.0205 12.2235 11.6063 12.2211L4.82132 12.1811Z" fill="#696969"/>
</svg>
