<svg width="16" height="18" viewBox="0 0 16 18" fill="none" xmlns="http://www.w3.org/2000/svg">
<path fill-rule="evenodd" clip-rule="evenodd" d="M7.688 0.874023C3.51079 0.874023 0.125 4.25981 0.125 8.43702C0.125 12.6142 3.51079 16 7.688 16C8.47896 16 9.23656 15.8724 9.94719 15.6483L14.4995 17.2686C14.7776 17.3676 15.0879 17.2942 15.2922 17.0813C15.4965 16.8683 15.557 16.5553 15.4466 16.2815L13.974 12.6299C14.7765 11.4314 15.251 9.99083 15.251 8.43702C15.251 4.26088 11.8653 0.874023 7.688 0.874023ZM1.625 8.43702C1.625 5.08824 4.33922 2.37402 7.688 2.37402C11.0367 2.37402 13.751 5.08916 13.751 8.43702C13.751 9.80397 13.2931 11.0619 12.5263 12.0783C12.3677 12.2885 12.331 12.5664 12.4294 12.8105L13.4319 15.2964L10.2065 14.1484C10.0443 14.0907 9.86729 14.0905 9.70502 14.1479C9.06921 14.3727 8.39262 14.5 7.688 14.5C4.33922 14.5 1.625 11.7858 1.625 8.43702ZM7.0209 10.4028H8.6049C8.6049 10.0028 8.66492 9.69481 8.78491 9.47881C8.87291 9.31881 9.05692 9.13881 9.33691 8.9388C9.84891 8.5708 10.2089 8.24281 10.4169 7.95481C10.6649 7.60281 10.7889 7.19481 10.7889 6.7308C10.7889 5.9388 10.5249 5.3228 9.9969 4.8828C9.4369 4.4108 8.67691 4.1748 7.7169 4.1748C6.9489 4.1748 6.30492 4.3828 5.78491 4.79881C5.15291 5.30281 4.83691 6.03081 4.83691 6.98281L6.52892 6.97081C6.58492 6.45881 6.7229 6.1008 6.9429 5.8968C7.1629 5.69281 7.45691 5.59081 7.82491 5.59081C8.14491 5.59081 8.40491 5.67081 8.6049 5.83081C8.8609 6.03081 8.98891 6.34681 8.98891 6.7788C8.98891 7.22681 8.74091 7.6228 8.2449 7.9668C7.7169 8.3428 7.37291 8.7028 7.21291 9.04681C7.0849 9.32681 7.0209 9.7788 7.0209 10.4028ZM8.72491 12.8988V11.2068H6.97292V12.8988H8.72491Z" fill="#696969"/>
</svg>
