<svg width="324" height="112" viewBox="0 0 324 112" fill="none" xmlns="http://www.w3.org/2000/svg">
<path d="M78.8185 14.0498C69.8445 5.07584 58.0835 0.589844 46.3215 0.589844C34.5605 0.589844 22.7985 5.07684 13.8245 14.0498C11.7265 16.1478 9.87753 18.3998 8.26953 20.7668C14.6665 11.4438 25.3965 5.32486 37.5585 5.32486C57.1655 5.32486 73.0595 21.2188 73.0595 40.8258C73.0595 47.1248 71.4115 53.0368 68.5345 58.1658C67.8455 59.4838 67.0265 60.7509 66.0875 61.9539C64.3155 64.3439 62.2485 66.4999 59.9435 68.3759L46.3205 81.9988L31.5495 96.7698L46.3205 111.541L78.8175 79.0449C96.7655 61.0959 96.7655 31.9978 78.8185 14.0498Z" fill="url(#paint0_linear)"/>
<path d="M73.0614 40.8252C73.0614 21.2182 57.1664 5.32422 37.5604 5.32422C25.3984 5.32422 14.6684 11.4432 8.27141 20.7662C8.18241 20.8972 8.09241 21.0282 8.00441 21.1602C7.73841 21.5582 7.47841 21.9612 7.22841 22.3702C7.20941 22.4012 7.19042 22.4332 7.17142 22.4642C-3.74358 40.1762 -1.52759 63.6902 13.8264 79.0432L24.0844 89.3002L38.8554 74.5292L28.5974 64.2712C18.8244 54.4972 18.8244 38.5942 28.5974 28.8202C33.3324 24.0852 39.6274 21.4782 46.3234 21.4782C53.0194 21.4782 59.3144 24.0852 64.0494 28.8202C71.9784 36.7492 73.4734 48.7122 68.5374 58.1642C71.4134 53.0362 73.0614 47.1252 73.0614 40.8252Z" fill="url(#paint1_linear)"/>
<path d="M62.6222 47.1787C62.6222 55.8277 55.6032 62.8338 46.9532 62.8338C38.3042 62.8338 31.2852 55.8277 31.2852 47.1787C31.2852 44.6477 31.8852 42.2608 32.9552 40.1468C35.5252 35.0198 40.8352 31.5098 46.9542 31.5098C53.0732 31.5098 58.3692 35.0058 60.9392 40.1198C62.0222 42.2478 62.6222 44.6347 62.6222 47.1787Z" fill="url(#paint2_linear)"/>
<path d="M119.452 49.9284C119.25 47.6024 117.699 46.3554 114.902 46.3554C112.475 46.3554 111.025 47.3664 111.025 49.0854C111.025 51.1754 113.588 51.3434 118.374 52.6914C122.654 53.9044 125.385 55.5564 125.385 59.5674C125.385 65.2304 120.397 67.3204 115.509 67.3204C109.003 67.3204 105.161 64.1854 105.094 58.7584H110.319C110.42 61.9944 112.544 63.2754 115.746 63.2754C118.51 63.2754 120.195 62.0624 120.195 60.0734C120.195 58.1854 118.577 57.8484 113.622 56.4324C109.712 55.3204 105.971 54.3424 105.971 49.4554C105.971 45.1074 109.612 42.2754 115.206 42.2754C120.263 42.2754 124.341 44.5674 124.442 49.9264H119.452V49.9284Z" fill="#2D2D2D"/>
<path d="M148.975 57.2102C148.975 64.0522 145.773 67.2542 138.762 67.2542C131.616 67.2542 128.414 63.9842 128.414 57.1422V42.7832H133.672V57.1422C133.672 60.8162 134.717 62.9062 138.829 62.9062C142.874 62.9062 143.717 60.6812 143.717 57.1422V42.7832H148.975V57.2102V57.2102Z" fill="#2D2D2D"/>
<path d="M163.908 42.7832C169.098 42.7832 172.705 45.2102 172.705 50.5022C172.705 55.7272 168.997 58.1532 164.178 58.1532H158.784V66.7822H153.559V42.7832H163.908ZM158.784 54.0072H163.47C165.829 54.0072 167.582 53.2322 167.582 50.5692C167.582 48.0072 165.829 47.0972 163.503 47.0972H158.784V54.0072Z" fill="#2D2D2D"/>
<path d="M194.007 47.0981H181.232V52.3232H192.962V56.4691H181.232V62.3682H194.243V66.7841H176.008V42.7852H194.008V47.0981H194.007Z" fill="#2D2D2D"/>
<path d="M209.982 42.7832C214.398 42.7832 218.072 44.7722 218.072 49.5922C218.072 52.3902 216.657 54.5812 214.263 55.4912C216.926 56.0302 217.6 58.7272 217.802 61.0862C217.937 62.6032 218.004 65.9062 218.948 66.7822H213.487C212.881 65.5692 212.881 63.1762 212.746 61.8612C212.409 58.5582 211.397 57.3782 207.96 57.3782H203.274V66.7822H198.049V42.7832H209.982V42.7832ZM203.275 53.5692H208.263C210.724 53.5692 212.914 53.1312 212.914 50.1652C212.914 47.4012 210.724 46.9292 208.499 46.9292H203.274V53.5692H203.275Z" fill="#2D2D2D"/>
<path d="M232.563 42.7832C237.754 42.7832 241.361 45.2102 241.361 50.5022C241.361 55.7272 237.653 58.1532 232.833 58.1532H227.44V66.7822H222.215V42.7832H232.563ZM227.44 54.0072H232.125C234.485 54.0072 236.237 53.2322 236.237 50.5692C236.237 48.0072 234.485 47.0972 232.159 47.0972H227.44V54.0072V54.0072Z" fill="#2D2D2D"/>
<path d="M267.281 54.8169C267.281 62.2999 262.528 67.3559 255.483 67.3559C248.372 67.3559 243.619 62.3339 243.619 54.8169C243.619 47.1989 248.338 42.2109 255.517 42.2109C262.528 42.2109 267.281 47.3009 267.281 54.8169ZM248.944 54.7159C248.944 59.8729 251.438 62.9739 255.517 63.0079C259.495 63.0079 261.955 59.8399 261.955 54.7159C261.955 49.6599 259.461 46.5249 255.45 46.5249C251.472 46.5249 248.944 49.7269 248.944 54.7159Z" fill="#2D2D2D"/>
<path d="M276.179 66.7822H270.887V42.7832H276.179V66.7822Z" fill="#2D2D2D"/>
<path d="M280.828 42.7832H286.187L296.063 58.8612V42.7832H301.12V66.7822H295.861L285.918 50.6702V66.7822H280.828V42.7832Z" fill="#2D2D2D"/>
<path d="M323.635 47.2662H316.422V66.7822H311.13V47.2662H303.916V42.7832H323.635V47.2662Z" fill="#2D2D2D"/>
<defs>
<linearGradient id="paint0_linear" x1="83.0799" y1="83.3045" x2="4.70753" y2="4.93244" gradientUnits="userSpaceOnUse">
<stop stop-color="#F58B1F"/>
<stop offset="0.4946" stop-color="#ED6723"/>
<stop offset="1" stop-color="#EE3E30"/>
</linearGradient>
<linearGradient id="paint1_linear" x1="-22.554" y1="5.74922" x2="93.5247" y2="87.5187" gradientUnits="userSpaceOnUse">
<stop stop-color="#C41E51"/>
<stop offset="0.1672" stop-color="#B41D4A"/>
<stop offset="0.4272" stop-color="#A21B43"/>
<stop offset="0.6992" stop-color="#971A3E"/>
<stop offset="1" stop-color="#931A3D"/>
</linearGradient>
<linearGradient id="paint2_linear" x1="46.9541" y1="78.4549" x2="46.9541" y2="42.0691" gradientUnits="userSpaceOnUse">
<stop stop-color="#C41E51"/>
<stop offset="0.1672" stop-color="#B41D4A"/>
<stop offset="0.4272" stop-color="#A21B43"/>
<stop offset="0.6992" stop-color="#971A3E"/>
<stop offset="1" stop-color="#931A3D"/>
</linearGradient>
</defs>
</svg>
