<svg width="14" height="10" viewBox="0 0 14 10" fill="none" xmlns="http://www.w3.org/2000/svg">
<path fill-rule="evenodd" clip-rule="evenodd" d="M1.54199 0.308105C1.12778 0.308105 0.791992 0.643892 0.791992 1.05811C0.791992 1.47232 1.12778 1.80811 1.54199 1.80811H5.10602C5.52023 1.80811 5.85602 1.47232 5.85602 1.05811C5.85602 0.643892 5.52023 0.308105 5.10602 0.308105H1.54199ZM9.5748 1.09896C9.2859 0.802132 8.81107 0.795713 8.51424 1.08462C8.21741 1.37353 8.211 1.84836 8.4999 2.14518L11.4068 5.13174L8.42024 8.03863C8.12342 8.32754 8.117 8.80237 8.40591 9.0992C8.69482 9.39602 9.16965 9.40244 9.46647 9.11353L12.9905 5.68352C13.2873 5.39461 13.2937 4.91978 13.0048 4.62296L9.5748 1.09896ZM1.54199 4.28511C1.12778 4.28511 0.791992 4.6209 0.791992 5.03511C0.791992 5.44932 1.12778 5.78511 1.54199 5.78511H5.10602C5.52023 5.78511 5.85602 5.44932 5.85602 5.03511C5.85602 4.6209 5.52023 4.28511 5.10602 4.28511H1.54199ZM0.791992 9.08411C0.791992 8.66989 1.12778 8.33411 1.54199 8.33411H5.10602C5.52023 8.33411 5.85602 8.66989 5.85602 9.08411C5.85602 9.49832 5.52023 9.83411 5.10602 9.83411H1.54199C1.12778 9.83411 0.791992 9.49832 0.791992 9.08411Z" fill="#E37222"/>
</svg>
